<?xml version="1.0" standalone="no"?>
<!DOCTYPE svg PUBLIC "-//W3C//DTD SVG 20010904//EN"
 "http://www.w3.org/TR/2001/REC-SVG-20010904/DTD/svg10.dtd">
<svg version="1.0" xmlns="http://www.w3.org/2000/svg"
 width="700.000000pt" height="700.000000pt" viewBox="0 0 700.000000 700.000000"
 preserveAspectRatio="xMidYMid meet">
<metadata>
Created by potrace 1.11, written by Peter Selinger 2001-2013
</metadata>
<g transform="translate(0.000000,700.000000) scale(0.100000,-0.100000)"
fill="#000000" stroke="none">
<path d="M200 6918 c0 -110 0 -6798 0 -6866 l0 -53 1478 5 c812 3 1500 8 1527
10 28 3 88 7 135 11 47 3 104 8 128 10 23 3 63 7 90 10 26 3 61 7 77 10 17 3
50 7 75 10 52 6 223 33 260 41 14 3 39 7 55 10 230 40 732 186 895 261 111 51
297 143 360 179 704 390 1173 1005 1386 1814 21 80 36 146 59 265 14 72 35
210 40 265 4 36 8 71 11 78 25 79 25 842 -1 1017 -2 17 -7 57 -11 90 -7 67
-10 87 -18 130 -3 17 -10 59 -16 95 -7 36 -15 85 -20 110 -10 54 -57 244 -69
280 -5 14 -17 52 -26 85 -10 33 -35 105 -56 160 -207 547 -537 983 -994 1312
-190 137 -522 315 -745 401 -127 48 -390 132 -492 156 -245 59 -319 75 -418
91 -58 9 -116 18 -130 20 -42 7 -182 25 -235 30 -27 3 -63 7 -80 10 -16 2 -70
7 -120 10 -49 4 -99 9 -110 11 -11 2 -698 7 -1527 10 l-1508 5 0 -83z m2710
-1552 c102 -3 199 -8 215 -10 17 -3 59 -8 95 -11 36 -4 72 -8 81 -10 8 -1 40
-6 70 -9 64 -8 108 -15 131 -22 10 -3 30 -7 45 -10 14 -3 72 -18 127 -34 431
-122 684 -284 915 -585 118 -154 245 -466 276 -681 3 -21 10 -64 15 -94 16
-94 23 -218 23 -405 0 -223 -10 -354 -38 -505 -11 -58 -59 -230 -85 -305 -132
-374 -426 -684 -803 -844 -121 -52 -321 -115 -432 -137 -92 -18 -252 -44 -305
-49 -36 -4 -78 -9 -95 -11 -113 -14 -1008 -25 -1020 -12 -7 7 -8 3563 -1 3653
2 28 4 58 5 67 1 14 13 18 64 20 84 4 489 0 717 -6z"/>
</g>
</svg>
